<?xml version="1.0" encoding="utf-8" standalone="no"?>
<!DOCTYPE svg PUBLIC "-//W3C//DTD SVG 1.1//EN"
  "http://www.w3.org/Graphics/SVG/1.1/DTD/svg11.dtd">
<svg xmlns:xlink="http://www.w3.org/1999/xlink" width="720pt" height="432pt" viewBox="0 0 720 432" xmlns="http://www.w3.org/2000/svg" version="1.1">
 <metadata>
  <rdf:RDF xmlns:dc="http://purl.org/dc/elements/1.1/" xmlns:cc="http://creativecommons.org/ns#" xmlns:rdf="http://www.w3.org/1999/02/22-rdf-syntax-ns#">
   <cc:Work>
    <dc:type rdf:resource="http://purl.org/dc/dcmitype/StillImage"/>
    <dc:date>2022-11-07T08:57:24.798430</dc:date>
    <dc:format>image/svg+xml</dc:format>
    <dc:creator>
     <cc:Agent>
      <dc:title>Matplotlib v3.5.1, https://matplotlib.org/</dc:title>
     </cc:Agent>
    </dc:creator>
   </cc:Work>
  </rdf:RDF>
 </metadata>
 <defs>
  <style type="text/css">*{stroke-linejoin: round; stroke-linecap: butt}</style>
 </defs>
 <g id="figure_1">
  <g id="patch_1">
   <path d="M 0 432 
L 720 432 
L 720 0 
L 0 0 
z
" style="fill: #ffffff"/>
  </g>
  <g id="axes_1">
   <g id="patch_2">
    <path d="M 90 384.48 
L 648 384.48 
L 648 51.84 
L 90 51.84 
z
" style="fill: #ffffff"/>
   </g>
   <g id="matplotlib.axis_1">
    <g id="xtick_1">
     <g id="line2d_1">
      <defs>
       <path id="m0f498ab7d6" d="M 0 0 
L 0 3.5 
" style="stroke: #000000; stroke-width: 0.8"/>
      </defs>
      <g>
       <use xlink:href="#m0f498ab7d6" x="106.765794" y="384.48" style="stroke: #000000; stroke-width: 0.8"/>
      </g>
     </g>
     <g id="text_1">
      <!-- 0 -->
      <g transform="translate(103.584544 399.078438)scale(0.1 -0.1)">
       <defs>
        <path id="DejaVuSans-30" d="M 2034 4250 
Q 1547 4250 1301 3770 
Q 1056 3291 1056 2328 
Q 1056 1369 1301 889 
Q 1547 409 2034 409 
Q 2525 409 2770 889 
Q 3016 1369 3016 2328 
Q 3016 3291 2770 3770 
Q 2525 4250 2034 4250 
z
M 2034 4750 
Q 2819 4750 3233 4129 
Q 3647 3509 3647 2328 
Q 3647 1150 3233 529 
Q 2819 -91 2034 -91 
Q 1250 -91 836 529 
Q 422 1150 422 2328 
Q 422 3509 836 4129 
Q 1250 4750 2034 4750 
z
" transform="scale(0.015625)"/>
       </defs>
       <use xlink:href="#DejaVuSans-30"/>
      </g>
     </g>
    </g>
    <g id="xtick_2">
     <g id="line2d_2">
      <g>
       <use xlink:href="#m0f498ab7d6" x="192.744222" y="384.48" style="stroke: #000000; stroke-width: 0.8"/>
      </g>
     </g>
     <g id="text_2">
      <!-- 10 -->
      <g transform="translate(186.381722 399.078438)scale(0.1 -0.1)">
       <defs>
        <path id="DejaVuSans-31" d="M 794 531 
L 1825 531 
L 1825 4091 
L 703 3866 
L 703 4441 
L 1819 4666 
L 2450 4666 
L 2450 531 
L 3481 531 
L 3481 0 
L 794 0 
L 794 531 
z
" transform="scale(0.015625)"/>
       </defs>
       <use xlink:href="#DejaVuSans-31"/>
       <use xlink:href="#DejaVuSans-30" x="63.623047"/>
      </g>
     </g>
    </g>
    <g id="xtick_3">
     <g id="line2d_3">
      <g>
       <use xlink:href="#m0f498ab7d6" x="278.72265" y="384.48" style="stroke: #000000; stroke-width: 0.8"/>
      </g>
     </g>
     <g id="text_3">
      <!-- 20 -->
      <g transform="translate(272.36015 399.078438)scale(0.1 -0.1)">
       <defs>
        <path id="DejaVuSans-32" d="M 1228 531 
L 3431 531 
L 3431 0 
L 469 0 
L 469 531 
Q 828 903 1448 1529 
Q 2069 2156 2228 2338 
Q 2531 2678 2651 2914 
Q 2772 3150 2772 3378 
Q 2772 3750 2511 3984 
Q 2250 4219 1831 4219 
Q 1534 4219 1204 4116 
Q 875 4013 500 3803 
L 500 4441 
Q 881 4594 1212 4672 
Q 1544 4750 1819 4750 
Q 2544 4750 2975 4387 
Q 3406 4025 3406 3419 
Q 3406 3131 3298 2873 
Q 3191 2616 2906 2266 
Q 2828 2175 2409 1742 
Q 1991 1309 1228 531 
z
" transform="scale(0.015625)"/>
       </defs>
       <use xlink:href="#DejaVuSans-32"/>
       <use xlink:href="#DejaVuSans-30" x="63.623047"/>
      </g>
     </g>
    </g>
    <g id="xtick_4">
     <g id="line2d_4">
      <g>
       <use xlink:href="#m0f498ab7d6" x="364.701079" y="384.48" style="stroke: #000000; stroke-width: 0.8"/>
      </g>
     </g>
     <g id="text_4">
      <!-- 30 -->
      <g transform="translate(358.338579 399.078438)scale(0.1 -0.1)">
       <defs>
        <path id="DejaVuSans-33" d="M 2597 2516 
Q 3050 2419 3304 2112 
Q 3559 1806 3559 1356 
Q 3559 666 3084 287 
Q 2609 -91 1734 -91 
Q 1441 -91 1130 -33 
Q 819 25 488 141 
L 488 750 
Q 750 597 1062 519 
Q 1375 441 1716 441 
Q 2309 441 2620 675 
Q 2931 909 2931 1356 
Q 2931 1769 2642 2001 
Q 2353 2234 1838 2234 
L 1294 2234 
L 1294 2753 
L 1863 2753 
Q 2328 2753 2575 2939 
Q 2822 3125 2822 3475 
Q 2822 3834 2567 4026 
Q 2313 4219 1838 4219 
Q 1578 4219 1281 4162 
Q 984 4106 628 3988 
L 628 4550 
Q 988 4650 1302 4700 
Q 1616 4750 1894 4750 
Q 2613 4750 3031 4423 
Q 3450 4097 3450 3541 
Q 3450 3153 3228 2886 
Q 3006 2619 2597 2516 
z
" transform="scale(0.015625)"/>
       </defs>
       <use xlink:href="#DejaVuSans-33"/>
       <use xlink:href="#DejaVuSans-30" x="63.623047"/>
      </g>
     </g>
    </g>
    <g id="xtick_5">
     <g id="line2d_5">
      <g>
       <use xlink:href="#m0f498ab7d6" x="450.679507" y="384.48" style="stroke: #000000; stroke-width: 0.8"/>
      </g>
     </g>
     <g id="text_5">
      <!-- 40 -->
      <g transform="translate(444.317007 399.078438)scale(0.1 -0.1)">
       <defs>
        <path id="DejaVuSans-34" d="M 2419 4116 
L 825 1625 
L 2419 1625 
L 2419 4116 
z
M 2253 4666 
L 3047 4666 
L 3047 1625 
L 3713 1625 
L 3713 1100 
L 3047 1100 
L 3047 0 
L 2419 0 
L 2419 1100 
L 313 1100 
L 313 1709 
L 2253 4666 
z
" transform="scale(0.015625)"/>
       </defs>
       <use xlink:href="#DejaVuSans-34"/>
       <use xlink:href="#DejaVuSans-30" x="63.623047"/>
      </g>
     </g>
    </g>
    <g id="xtick_6">
     <g id="line2d_6">
      <g>
       <use xlink:href="#m0f498ab7d6" x="536.657935" y="384.48" style="stroke: #000000; stroke-width: 0.8"/>
      </g>
     </g>
     <g id="text_6">
      <!-- 50 -->
      <g transform="translate(530.295435 399.078438)scale(0.1 -0.1)">
       <defs>
        <path id="DejaVuSans-35" d="M 691 4666 
L 3169 4666 
L 3169 4134 
L 1269 4134 
L 1269 2991 
Q 1406 3038 1543 3061 
Q 1681 3084 1819 3084 
Q 2600 3084 3056 2656 
Q 3513 2228 3513 1497 
Q 3513 744 3044 326 
Q 2575 -91 1722 -91 
Q 1428 -91 1123 -41 
Q 819 9 494 109 
L 494 744 
Q 775 591 1075 516 
Q 1375 441 1709 441 
Q 2250 441 2565 725 
Q 2881 1009 2881 1497 
Q 2881 1984 2565 2268 
Q 2250 2553 1709 2553 
Q 1456 2553 1204 2497 
Q 953 2441 691 2322 
L 691 4666 
z
" transform="scale(0.015625)"/>
       </defs>
       <use xlink:href="#DejaVuSans-35"/>
       <use xlink:href="#DejaVuSans-30" x="63.623047"/>
      </g>
     </g>
    </g>
    <g id="xtick_7">
     <g id="line2d_7">
      <g>
       <use xlink:href="#m0f498ab7d6" x="622.636364" y="384.48" style="stroke: #000000; stroke-width: 0.8"/>
      </g>
     </g>
     <g id="text_7">
      <!-- 60 -->
      <g transform="translate(616.273864 399.078438)scale(0.1 -0.1)">
       <defs>
        <path id="DejaVuSans-36" d="M 2113 2584 
Q 1688 2584 1439 2293 
Q 1191 2003 1191 1497 
Q 1191 994 1439 701 
Q 1688 409 2113 409 
Q 2538 409 2786 701 
Q 3034 994 3034 1497 
Q 3034 2003 2786 2293 
Q 2538 2584 2113 2584 
z
M 3366 4563 
L 3366 3988 
Q 3128 4100 2886 4159 
Q 2644 4219 2406 4219 
Q 1781 4219 1451 3797 
Q 1122 3375 1075 2522 
Q 1259 2794 1537 2939 
Q 1816 3084 2150 3084 
Q 2853 3084 3261 2657 
Q 3669 2231 3669 1497 
Q 3669 778 3244 343 
Q 2819 -91 2113 -91 
Q 1303 -91 875 529 
Q 447 1150 447 2328 
Q 447 3434 972 4092 
Q 1497 4750 2381 4750 
Q 2619 4750 2861 4703 
Q 3103 4656 3366 4563 
z
" transform="scale(0.015625)"/>
       </defs>
       <use xlink:href="#DejaVuSans-36"/>
       <use xlink:href="#DejaVuSans-30" x="63.623047"/>
      </g>
     </g>
    </g>
    <g id="text_8">
     <!-- Epoch -->
     <g transform="translate(353.689062 412.756563)scale(0.1 -0.1)">
      <defs>
       <path id="DejaVuSans-45" d="M 628 4666 
L 3578 4666 
L 3578 4134 
L 1259 4134 
L 1259 2753 
L 3481 2753 
L 3481 2222 
L 1259 2222 
L 1259 531 
L 3634 531 
L 3634 0 
L 628 0 
L 628 4666 
z
" transform="scale(0.015625)"/>
       <path id="DejaVuSans-70" d="M 1159 525 
L 1159 -1331 
L 581 -1331 
L 581 3500 
L 1159 3500 
L 1159 2969 
Q 1341 3281 1617 3432 
Q 1894 3584 2278 3584 
Q 2916 3584 3314 3078 
Q 3713 2572 3713 1747 
Q 3713 922 3314 415 
Q 2916 -91 2278 -91 
Q 1894 -91 1617 61 
Q 1341 213 1159 525 
z
M 3116 1747 
Q 3116 2381 2855 2742 
Q 2594 3103 2138 3103 
Q 1681 3103 1420 2742 
Q 1159 2381 1159 1747 
Q 1159 1113 1420 752 
Q 1681 391 2138 391 
Q 2594 391 2855 752 
Q 3116 1113 3116 1747 
z
" transform="scale(0.015625)"/>
       <path id="DejaVuSans-6f" d="M 1959 3097 
Q 1497 3097 1228 2736 
Q 959 2375 959 1747 
Q 959 1119 1226 758 
Q 1494 397 1959 397 
Q 2419 397 2687 759 
Q 2956 1122 2956 1747 
Q 2956 2369 2687 2733 
Q 2419 3097 1959 3097 
z
M 1959 3584 
Q 2709 3584 3137 3096 
Q 3566 2609 3566 1747 
Q 3566 888 3137 398 
Q 2709 -91 1959 -91 
Q 1206 -91 779 398 
Q 353 888 353 1747 
Q 353 2609 779 3096 
Q 1206 3584 1959 3584 
z
" transform="scale(0.015625)"/>
       <path id="DejaVuSans-63" d="M 3122 3366 
L 3122 2828 
Q 2878 2963 2633 3030 
Q 2388 3097 2138 3097 
Q 1578 3097 1268 2742 
Q 959 2388 959 1747 
Q 959 1106 1268 751 
Q 1578 397 2138 397 
Q 2388 397 2633 464 
Q 2878 531 3122 666 
L 3122 134 
Q 2881 22 2623 -34 
Q 2366 -91 2075 -91 
Q 1284 -91 818 406 
Q 353 903 353 1747 
Q 353 2603 823 3093 
Q 1294 3584 2113 3584 
Q 2378 3584 2631 3529 
Q 2884 3475 3122 3366 
z
" transform="scale(0.015625)"/>
       <path id="DejaVuSans-68" d="M 3513 2113 
L 3513 0 
L 2938 0 
L 2938 2094 
Q 2938 2591 2744 2837 
Q 2550 3084 2163 3084 
Q 1697 3084 1428 2787 
Q 1159 2491 1159 1978 
L 1159 0 
L 581 0 
L 581 4863 
L 1159 4863 
L 1159 2956 
Q 1366 3272 1645 3428 
Q 1925 3584 2291 3584 
Q 2894 3584 3203 3211 
Q 3513 2838 3513 2113 
z
" transform="scale(0.015625)"/>
      </defs>
      <use xlink:href="#DejaVuSans-45"/>
      <use xlink:href="#DejaVuSans-70" x="63.183594"/>
      <use xlink:href="#DejaVuSans-6f" x="126.660156"/>
      <use xlink:href="#DejaVuSans-63" x="187.841797"/>
      <use xlink:href="#DejaVuSans-68" x="242.822266"/>
     </g>
    </g>
   </g>
   <g id="matplotlib.axis_2">
    <g id="ytick_1">
     <g id="line2d_8">
      <defs>
       <path id="mc39e15166d" d="M 0 0 
L -3.5 0 
" style="stroke: #000000; stroke-width: 0.8"/>
      </defs>
      <g>
       <use xlink:href="#mc39e15166d" x="90" y="359.909069" style="stroke: #000000; stroke-width: 0.8"/>
      </g>
     </g>
     <g id="text_9">
      <!-- 1.8 -->
      <g transform="translate(67.096875 363.708287)scale(0.1 -0.1)">
       <defs>
        <path id="DejaVuSans-2e" d="M 684 794 
L 1344 794 
L 1344 0 
L 684 0 
L 684 794 
z
" transform="scale(0.015625)"/>
        <path id="DejaVuSans-38" d="M 2034 2216 
Q 1584 2216 1326 1975 
Q 1069 1734 1069 1313 
Q 1069 891 1326 650 
Q 1584 409 2034 409 
Q 2484 409 2743 651 
Q 3003 894 3003 1313 
Q 3003 1734 2745 1975 
Q 2488 2216 2034 2216 
z
M 1403 2484 
Q 997 2584 770 2862 
Q 544 3141 544 3541 
Q 544 4100 942 4425 
Q 1341 4750 2034 4750 
Q 2731 4750 3128 4425 
Q 3525 4100 3525 3541 
Q 3525 3141 3298 2862 
Q 3072 2584 2669 2484 
Q 3125 2378 3379 2068 
Q 3634 1759 3634 1313 
Q 3634 634 3220 271 
Q 2806 -91 2034 -91 
Q 1263 -91 848 271 
Q 434 634 434 1313 
Q 434 1759 690 2068 
Q 947 2378 1403 2484 
z
M 1172 3481 
Q 1172 3119 1398 2916 
Q 1625 2713 2034 2713 
Q 2441 2713 2670 2916 
Q 2900 3119 2900 3481 
Q 2900 3844 2670 4047 
Q 2441 4250 2034 4250 
Q 1625 4250 1398 4047 
Q 1172 3844 1172 3481 
z
" transform="scale(0.015625)"/>
       </defs>
       <use xlink:href="#DejaVuSans-31"/>
       <use xlink:href="#DejaVuSans-2e" x="63.623047"/>
       <use xlink:href="#DejaVuSans-38" x="95.410156"/>
      </g>
     </g>
    </g>
    <g id="ytick_2">
     <g id="line2d_9">
      <g>
       <use xlink:href="#mc39e15166d" x="90" y="306.271128" style="stroke: #000000; stroke-width: 0.8"/>
      </g>
     </g>
     <g id="text_10">
      <!-- 2.0 -->
      <g transform="translate(67.096875 310.070347)scale(0.1 -0.1)">
       <use xlink:href="#DejaVuSans-32"/>
       <use xlink:href="#DejaVuSans-2e" x="63.623047"/>
       <use xlink:href="#DejaVuSans-30" x="95.410156"/>
      </g>
     </g>
    </g>
    <g id="ytick_3">
     <g id="line2d_10">
      <g>
       <use xlink:href="#mc39e15166d" x="90" y="252.633187" style="stroke: #000000; stroke-width: 0.8"/>
      </g>
     </g>
     <g id="text_11">
      <!-- 2.2 -->
      <g transform="translate(67.096875 256.432406)scale(0.1 -0.1)">
       <use xlink:href="#DejaVuSans-32"/>
       <use xlink:href="#DejaVuSans-2e" x="63.623047"/>
       <use xlink:href="#DejaVuSans-32" x="95.410156"/>
      </g>
     </g>
    </g>
    <g id="ytick_4">
     <g id="line2d_11">
      <g>
       <use xlink:href="#mc39e15166d" x="90" y="198.995246" style="stroke: #000000; stroke-width: 0.8"/>
      </g>
     </g>
     <g id="text_12">
      <!-- 2.4 -->
      <g transform="translate(67.096875 202.794465)scale(0.1 -0.1)">
       <use xlink:href="#DejaVuSans-32"/>
       <use xlink:href="#DejaVuSans-2e" x="63.623047"/>
       <use xlink:href="#DejaVuSans-34" x="95.410156"/>
      </g>
     </g>
    </g>
    <g id="ytick_5">
     <g id="line2d_12">
      <g>
       <use xlink:href="#mc39e15166d" x="90" y="145.357306" style="stroke: #000000; stroke-width: 0.8"/>
      </g>
     </g>
     <g id="text_13">
      <!-- 2.6 -->
      <g transform="translate(67.096875 149.156524)scale(0.1 -0.1)">
       <use xlink:href="#DejaVuSans-32"/>
       <use xlink:href="#DejaVuSans-2e" x="63.623047"/>
       <use xlink:href="#DejaVuSans-36" x="95.410156"/>
      </g>
     </g>
    </g>
    <g id="ytick_6">
     <g id="line2d_13">
      <g>
       <use xlink:href="#mc39e15166d" x="90" y="91.719365" style="stroke: #000000; stroke-width: 0.8"/>
      </g>
     </g>
     <g id="text_14">
      <!-- 2.8 -->
      <g transform="translate(67.096875 95.518584)scale(0.1 -0.1)">
       <use xlink:href="#DejaVuSans-32"/>
       <use xlink:href="#DejaVuSans-2e" x="63.623047"/>
       <use xlink:href="#DejaVuSans-38" x="95.410156"/>
      </g>
     </g>
    </g>
    <g id="text_15">
     <!-- Loss -->
     <g transform="translate(61.017187 229.127187)rotate(-90)scale(0.1 -0.1)">
      <defs>
       <path id="DejaVuSans-4c" d="M 628 4666 
L 1259 4666 
L 1259 531 
L 3531 531 
L 3531 0 
L 628 0 
L 628 4666 
z
" transform="scale(0.015625)"/>
       <path id="DejaVuSans-73" d="M 2834 3397 
L 2834 2853 
Q 2591 2978 2328 3040 
Q 2066 3103 1784 3103 
Q 1356 3103 1142 2972 
Q 928 2841 928 2578 
Q 928 2378 1081 2264 
Q 1234 2150 1697 2047 
L 1894 2003 
Q 2506 1872 2764 1633 
Q 3022 1394 3022 966 
Q 3022 478 2636 193 
Q 2250 -91 1575 -91 
Q 1294 -91 989 -36 
Q 684 19 347 128 
L 347 722 
Q 666 556 975 473 
Q 1284 391 1588 391 
Q 1994 391 2212 530 
Q 2431 669 2431 922 
Q 2431 1156 2273 1281 
Q 2116 1406 1581 1522 
L 1381 1569 
Q 847 1681 609 1914 
Q 372 2147 372 2553 
Q 372 3047 722 3315 
Q 1072 3584 1716 3584 
Q 2034 3584 2315 3537 
Q 2597 3491 2834 3397 
z
" transform="scale(0.015625)"/>
      </defs>
      <use xlink:href="#DejaVuSans-4c"/>
      <use xlink:href="#DejaVuSans-6f" x="53.962891"/>
      <use xlink:href="#DejaVuSans-73" x="115.144531"/>
      <use xlink:href="#DejaVuSans-73" x="167.244141"/>
     </g>
    </g>
   </g>
   <g id="line2d_14">
    <path d="M 115.363636 66.96 
L 123.961479 179.800676 
L 132.559322 224.751889 
L 141.157165 249.646065 
L 149.755008 269.168115 
L 158.352851 286.632409 
L 166.950693 296.796332 
L 175.548536 307.323089 
L 184.146379 315.890063 
L 192.744222 321.981241 
L 201.342065 331.837482 
L 209.939908 333.314497 
L 218.53775 337.072179 
L 227.135593 345.036249 
L 235.733436 342.852527 
L 244.331279 352.393605 
L 252.929122 354.541631 
L 261.526965 353.390028 
L 270.124807 358.257718 
L 278.72265 359.401968 
L 287.320493 361.742479 
L 295.918336 364.02395 
L 304.516179 358.662232 
L 313.114022 364.141497 
L 321.711864 362.658569 
L 330.309707 364.955471 
L 338.90755 362.983167 
L 347.505393 363.879273 
L 356.103236 365.723607 
L 364.701079 364.017878 
L 373.298921 363.882209 
L 381.896764 364.960955 
L 390.494607 364.54587 
L 399.09245 366.354506 
L 407.690293 359.470262 
L 416.288136 365.133676 
L 424.885978 362.311721 
L 433.483821 363.67997 
L 442.081664 365.93498 
L 450.679507 364.487469 
L 459.27735 369.36 
L 467.875193 362.294395 
L 476.473035 366.306786 
L 485.070878 361.181406 
L 493.668721 366.412729 
L 502.266564 362.6685 
L 510.864407 359.080924 
L 519.46225 356.401289 
L 528.060092 365.529408 
L 536.657935 359.274183 
L 545.255778 365.645289 
L 553.853621 361.011704 
L 562.451464 356.460882 
L 571.049307 352.576202 
L 579.647149 357.270888 
L 588.244992 354.383869 
L 596.842835 356.14536 
L 605.440678 355.553881 
L 614.038521 353.601096 
L 622.636364 353.622725 
" clip-path="url(#p1c010a1fe8)" style="fill: none; stroke: #ffa500; stroke-width: 1.5; stroke-linecap: square"/>
    <defs>
     <path id="ma66c88226f" d="M 0 1.5 
C 0.397805 1.5 0.77937 1.341951 1.06066 1.06066 
C 1.341951 0.77937 1.5 0.397805 1.5 0 
C 1.5 -0.397805 1.341951 -0.77937 1.06066 -1.06066 
C 0.77937 -1.341951 0.397805 -1.5 0 -1.5 
C -0.397805 -1.5 -0.77937 -1.341951 -1.06066 -1.06066 
C -1.341951 -0.77937 -1.5 -0.397805 -1.5 0 
C -1.5 0.397805 -1.341951 0.77937 -1.06066 1.06066 
C -0.77937 1.341951 -0.397805 1.5 0 1.5 
z
" style="stroke: #ffa500"/>
    </defs>
    <g clip-path="url(#p1c010a1fe8)">
     <use xlink:href="#ma66c88226f" x="115.363636" y="66.96" style="fill: #ffa500; stroke: #ffa500"/>
     <use xlink:href="#ma66c88226f" x="123.961479" y="179.800676" style="fill: #ffa500; stroke: #ffa500"/>
     <use xlink:href="#ma66c88226f" x="132.559322" y="224.751889" style="fill: #ffa500; stroke: #ffa500"/>
     <use xlink:href="#ma66c88226f" x="141.157165" y="249.646065" style="fill: #ffa500; stroke: #ffa500"/>
     <use xlink:href="#ma66c88226f" x="149.755008" y="269.168115" style="fill: #ffa500; stroke: #ffa500"/>
     <use xlink:href="#ma66c88226f" x="158.352851" y="286.632409" style="fill: #ffa500; stroke: #ffa500"/>
     <use xlink:href="#ma66c88226f" x="166.950693" y="296.796332" style="fill: #ffa500; stroke: #ffa500"/>
     <use xlink:href="#ma66c88226f" x="175.548536" y="307.323089" style="fill: #ffa500; stroke: #ffa500"/>
     <use xlink:href="#ma66c88226f" x="184.146379" y="315.890063" style="fill: #ffa500; stroke: #ffa500"/>
     <use xlink:href="#ma66c88226f" x="192.744222" y="321.981241" style="fill: #ffa500; stroke: #ffa500"/>
     <use xlink:href="#ma66c88226f" x="201.342065" y="331.837482" style="fill: #ffa500; stroke: #ffa500"/>
     <use xlink:href="#ma66c88226f" x="209.939908" y="333.314497" style="fill: #ffa500; stroke: #ffa500"/>
     <use xlink:href="#ma66c88226f" x="218.53775" y="337.072179" style="fill: #ffa500; stroke: #ffa500"/>
     <use xlink:href="#ma66c88226f" x="227.135593" y="345.036249" style="fill: #ffa500; stroke: #ffa500"/>
     <use xlink:href="#ma66c88226f" x="235.733436" y="342.852527" style="fill: #ffa500; stroke: #ffa500"/>
     <use xlink:href="#ma66c88226f" x="244.331279" y="352.393605" style="fill: #ffa500; stroke: #ffa500"/>
     <use xlink:href="#ma66c88226f" x="252.929122" y="354.541631" style="fill: #ffa500; stroke: #ffa500"/>
     <use xlink:href="#ma66c88226f" x="261.526965" y="353.390028" style="fill: #ffa500; stroke: #ffa500"/>
     <use xlink:href="#ma66c88226f" x="270.124807" y="358.257718" style="fill: #ffa500; stroke: #ffa500"/>
     <use xlink:href="#ma66c88226f" x="278.72265" y="359.401968" style="fill: #ffa500; stroke: #ffa500"/>
     <use xlink:href="#ma66c88226f" x="287.320493" y="361.742479" style="fill: #ffa500; stroke: #ffa500"/>
     <use xlink:href="#ma66c88226f" x="295.918336" y="364.02395" style="fill: #ffa500; stroke: #ffa500"/>
     <use xlink:href="#ma66c88226f" x="304.516179" y="358.662232" style="fill: #ffa500; stroke: #ffa500"/>
     <use xlink:href="#ma66c88226f" x="313.114022" y="364.141497" style="fill: #ffa500; stroke: #ffa500"/>
     <use xlink:href="#ma66c88226f" x="321.711864" y="362.658569" style="fill: #ffa500; stroke: #ffa500"/>
     <use xlink:href="#ma66c88226f" x="330.309707" y="364.955471" style="fill: #ffa500; stroke: #ffa500"/>
     <use xlink:href="#ma66c88226f" x="338.90755" y="362.983167" style="fill: #ffa500; stroke: #ffa500"/>
     <use xlink:href="#ma66c88226f" x="347.505393" y="363.879273" style="fill: #ffa500; stroke: #ffa500"/>
     <use xlink:href="#ma66c88226f" x="356.103236" y="365.723607" style="fill: #ffa500; stroke: #ffa500"/>
     <use xlink:href="#ma66c88226f" x="364.701079" y="364.017878" style="fill: #ffa500; stroke: #ffa500"/>
     <use xlink:href="#ma66c88226f" x="373.298921" y="363.882209" style="fill: #ffa500; stroke: #ffa500"/>
     <use xlink:href="#ma66c88226f" x="381.896764" y="364.960955" style="fill: #ffa500; stroke: #ffa500"/>
     <use xlink:href="#ma66c88226f" x="390.494607" y="364.54587" style="fill: #ffa500; stroke: #ffa500"/>
     <use xlink:href="#ma66c88226f" x="399.09245" y="366.354506" style="fill: #ffa500; stroke: #ffa500"/>
     <use xlink:href="#ma66c88226f" x="407.690293" y="359.470262" style="fill: #ffa500; stroke: #ffa500"/>
     <use xlink:href="#ma66c88226f" x="416.288136" y="365.133676" style="fill: #ffa500; stroke: #ffa500"/>
     <use xlink:href="#ma66c88226f" x="424.885978" y="362.311721" style="fill: #ffa500; stroke: #ffa500"/>
     <use xlink:href="#ma66c88226f" x="433.483821" y="363.67997" style="fill: #ffa500; stroke: #ffa500"/>
     <use xlink:href="#ma66c88226f" x="442.081664" y="365.93498" style="fill: #ffa500; stroke: #ffa500"/>
     <use xlink:href="#ma66c88226f" x="450.679507" y="364.487469" style="fill: #ffa500; stroke: #ffa500"/>
     <use xlink:href="#ma66c88226f" x="459.27735" y="369.36" style="fill: #ffa500; stroke: #ffa500"/>
     <use xlink:href="#ma66c88226f" x="467.875193" y="362.294395" style="fill: #ffa500; stroke: #ffa500"/>
     <use xlink:href="#ma66c88226f" x="476.473035" y="366.306786" style="fill: #ffa500; stroke: #ffa500"/>
     <use xlink:href="#ma66c88226f" x="485.070878" y="361.181406" style="fill: #ffa500; stroke: #ffa500"/>
     <use xlink:href="#ma66c88226f" x="493.668721" y="366.412729" style="fill: #ffa500; stroke: #ffa500"/>
     <use xlink:href="#ma66c88226f" x="502.266564" y="362.6685" style="fill: #ffa500; stroke: #ffa500"/>
     <use xlink:href="#ma66c88226f" x="510.864407" y="359.080924" style="fill: #ffa500; stroke: #ffa500"/>
     <use xlink:href="#ma66c88226f" x="519.46225" y="356.401289" style="fill: #ffa500; stroke: #ffa500"/>
     <use xlink:href="#ma66c88226f" x="528.060092" y="365.529408" style="fill: #ffa500; stroke: #ffa500"/>
     <use xlink:href="#ma66c88226f" x="536.657935" y="359.274183" style="fill: #ffa500; stroke: #ffa500"/>
     <use xlink:href="#ma66c88226f" x="545.255778" y="365.645289" style="fill: #ffa500; stroke: #ffa500"/>
     <use xlink:href="#ma66c88226f" x="553.853621" y="361.011704" style="fill: #ffa500; stroke: #ffa500"/>
     <use xlink:href="#ma66c88226f" x="562.451464" y="356.460882" style="fill: #ffa500; stroke: #ffa500"/>
     <use xlink:href="#ma66c88226f" x="571.049307" y="352.576202" style="fill: #ffa500; stroke: #ffa500"/>
     <use xlink:href="#ma66c88226f" x="579.647149" y="357.270888" style="fill: #ffa500; stroke: #ffa500"/>
     <use xlink:href="#ma66c88226f" x="588.244992" y="354.383869" style="fill: #ffa500; stroke: #ffa500"/>
     <use xlink:href="#ma66c88226f" x="596.842835" y="356.14536" style="fill: #ffa500; stroke: #ffa500"/>
     <use xlink:href="#ma66c88226f" x="605.440678" y="355.553881" style="fill: #ffa500; stroke: #ffa500"/>
     <use xlink:href="#ma66c88226f" x="614.038521" y="353.601096" style="fill: #ffa500; stroke: #ffa500"/>
     <use xlink:href="#ma66c88226f" x="622.636364" y="353.622725" style="fill: #ffa500; stroke: #ffa500"/>
    </g>
   </g>
   <g id="line2d_15">
    <path d="M 115.363636 114.151255 
L 123.961479 220.194094 
L 132.559322 231.252795 
L 141.157165 245.427751 
L 149.755008 260.104971 
L 158.352851 271.970611 
L 166.950693 264.545434 
L 175.548536 283.634548 
L 184.146379 286.8574 
L 192.744222 286.005611 
L 201.342065 269.101429 
L 209.939908 274.177831 
L 218.53775 275.417316 
L 227.135593 285.355172 
L 235.733436 295.933253 
L 244.331279 277.831979 
L 252.929122 290.266686 
L 261.526965 296.41079 
L 270.124807 253.957409 
L 278.72265 288.063263 
L 287.320493 283.71955 
L 295.918336 287.701064 
L 304.516179 278.320676 
L 313.114022 279.183453 
L 321.711864 293.939829 
L 330.309707 281.445392 
L 338.90755 277.557194 
L 347.505393 284.636547 
L 356.103236 287.354006 
L 364.701079 291.224365 
L 373.298921 298.950233 
L 381.896764 294.17347 
L 390.494607 296.978436 
L 399.09245 290.774128 
L 407.690293 294.096079 
L 416.288136 281.810491 
L 424.885978 309.292575 
L 433.483821 289.332634 
L 442.081664 286.076834 
L 450.679507 288.460322 
L 459.27735 287.585601 
L 467.875193 291.14095 
L 476.473035 274.595448 
L 485.070878 298.323397 
L 493.668721 271.523209 
L 502.266564 268.912121 
L 510.864407 256.781128 
L 519.46225 289.810537 
L 528.060092 289.929594 
L 536.657935 275.47616 
L 545.255778 279.143991 
L 553.853621 281.29439 
L 562.451464 292.370107 
L 571.049307 277.129188 
L 579.647149 275.260201 
L 588.244992 289.959287 
L 596.842835 287.113026 
L 605.440678 291.87309 
L 614.038521 246.502842 
L 622.636364 292.051647 
" clip-path="url(#p1c010a1fe8)" style="fill: none; stroke: #008000; stroke-width: 1.5; stroke-linecap: square"/>
    <defs>
     <path id="m70beac274e" d="M 0 -3 
L -3 3 
L 3 3 
z
" style="stroke: #008000; stroke-linejoin: miter"/>
    </defs>
    <g clip-path="url(#p1c010a1fe8)">
     <use xlink:href="#m70beac274e" x="115.363636" y="114.151255" style="fill: #008000; stroke: #008000; stroke-linejoin: miter"/>
     <use xlink:href="#m70beac274e" x="123.961479" y="220.194094" style="fill: #008000; stroke: #008000; stroke-linejoin: miter"/>
     <use xlink:href="#m70beac274e" x="132.559322" y="231.252795" style="fill: #008000; stroke: #008000; stroke-linejoin: miter"/>
     <use xlink:href="#m70beac274e" x="141.157165" y="245.427751" style="fill: #008000; stroke: #008000; stroke-linejoin: miter"/>
     <use xlink:href="#m70beac274e" x="149.755008" y="260.104971" style="fill: #008000; stroke: #008000; stroke-linejoin: miter"/>
     <use xlink:href="#m70beac274e" x="158.352851" y="271.970611" style="fill: #008000; stroke: #008000; stroke-linejoin: miter"/>
     <use xlink:href="#m70beac274e" x="166.950693" y="264.545434" style="fill: #008000; stroke: #008000; stroke-linejoin: miter"/>
     <use xlink:href="#m70beac274e" x="175.548536" y="283.634548" style="fill: #008000; stroke: #008000; stroke-linejoin: miter"/>
     <use xlink:href="#m70beac274e" x="184.146379" y="286.8574" style="fill: #008000; stroke: #008000; stroke-linejoin: miter"/>
     <use xlink:href="#m70beac274e" x="192.744222" y="286.005611" style="fill: #008000; stroke: #008000; stroke-linejoin: miter"/>
     <use xlink:href="#m70beac274e" x="201.342065" y="269.101429" style="fill: #008000; stroke: #008000; stroke-linejoin: miter"/>
     <use xlink:href="#m70beac274e" x="209.939908" y="274.177831" style="fill: #008000; stroke: #008000; stroke-linejoin: miter"/>
     <use xlink:href="#m70beac274e" x="218.53775" y="275.417316" style="fill: #008000; stroke: #008000; stroke-linejoin: miter"/>
     <use xlink:href="#m70beac274e" x="227.135593" y="285.355172" style="fill: #008000; stroke: #008000; stroke-linejoin: miter"/>
     <use xlink:href="#m70beac274e" x="235.733436" y="295.933253" style="fill: #008000; stroke: #008000; stroke-linejoin: miter"/>
     <use xlink:href="#m70beac274e" x="244.331279" y="277.831979" style="fill: #008000; stroke: #008000; stroke-linejoin: miter"/>
     <use xlink:href="#m70beac274e" x="252.929122" y="290.266686" style="fill: #008000; stroke: #008000; stroke-linejoin: miter"/>
     <use xlink:href="#m70beac274e" x="261.526965" y="296.41079" style="fill: #008000; stroke: #008000; stroke-linejoin: miter"/>
     <use xlink:href="#m70beac274e" x="270.124807" y="253.957409" style="fill: #008000; stroke: #008000; stroke-linejoin: miter"/>
     <use xlink:href="#m70beac274e" x="278.72265" y="288.063263" style="fill: #008000; stroke: #008000; stroke-linejoin: miter"/>
     <use xlink:href="#m70beac274e" x="287.320493" y="283.71955" style="fill: #008000; stroke: #008000; stroke-linejoin: miter"/>
     <use xlink:href="#m70beac274e" x="295.918336" y="287.701064" style="fill: #008000; stroke: #008000; stroke-linejoin: miter"/>
     <use xlink:href="#m70beac274e" x="304.516179" y="278.320676" style="fill: #008000; stroke: #008000; stroke-linejoin: miter"/>
     <use xlink:href="#m70beac274e" x="313.114022" y="279.183453" style="fill: #008000; stroke: #008000; stroke-linejoin: miter"/>
     <use xlink:href="#m70beac274e" x="321.711864" y="293.939829" style="fill: #008000; stroke: #008000; stroke-linejoin: miter"/>
     <use xlink:href="#m70beac274e" x="330.309707" y="281.445392" style="fill: #008000; stroke: #008000; stroke-linejoin: miter"/>
     <use xlink:href="#m70beac274e" x="338.90755" y="277.557194" style="fill: #008000; stroke: #008000; stroke-linejoin: miter"/>
     <use xlink:href="#m70beac274e" x="347.505393" y="284.636547" style="fill: #008000; stroke: #008000; stroke-linejoin: miter"/>
     <use xlink:href="#m70beac274e" x="356.103236" y="287.354006" style="fill: #008000; stroke: #008000; stroke-linejoin: miter"/>
     <use xlink:href="#m70beac274e" x="364.701079" y="291.224365" style="fill: #008000; stroke: #008000; stroke-linejoin: miter"/>
     <use xlink:href="#m70beac274e" x="373.298921" y="298.950233" style="fill: #008000; stroke: #008000; stroke-linejoin: miter"/>
     <use xlink:href="#m70beac274e" x="381.896764" y="294.17347" style="fill: #008000; stroke: #008000; stroke-linejoin: miter"/>
     <use xlink:href="#m70beac274e" x="390.494607" y="296.978436" style="fill: #008000; stroke: #008000; stroke-linejoin: miter"/>
     <use xlink:href="#m70beac274e" x="399.09245" y="290.774128" style="fill: #008000; stroke: #008000; stroke-linejoin: miter"/>
     <use xlink:href="#m70beac274e" x="407.690293" y="294.096079" style="fill: #008000; stroke: #008000; stroke-linejoin: miter"/>
     <use xlink:href="#m70beac274e" x="416.288136" y="281.810491" style="fill: #008000; stroke: #008000; stroke-linejoin: miter"/>
     <use xlink:href="#m70beac274e" x="424.885978" y="309.292575" style="fill: #008000; stroke: #008000; stroke-linejoin: miter"/>
     <use xlink:href="#m70beac274e" x="433.483821" y="289.332634" style="fill: #008000; stroke: #008000; stroke-linejoin: miter"/>
     <use xlink:href="#m70beac274e" x="442.081664" y="286.076834" style="fill: #008000; stroke: #008000; stroke-linejoin: miter"/>
     <use xlink:href="#m70beac274e" x="450.679507" y="288.460322" style="fill: #008000; stroke: #008000; stroke-linejoin: miter"/>
     <use xlink:href="#m70beac274e" x="459.27735" y="287.585601" style="fill: #008000; stroke: #008000; stroke-linejoin: miter"/>
     <use xlink:href="#m70beac274e" x="467.875193" y="291.14095" style="fill: #008000; stroke: #008000; stroke-linejoin: miter"/>
     <use xlink:href="#m70beac274e" x="476.473035" y="274.595448" style="fill: #008000; stroke: #008000; stroke-linejoin: miter"/>
     <use xlink:href="#m70beac274e" x="485.070878" y="298.323397" style="fill: #008000; stroke: #008000; stroke-linejoin: miter"/>
     <use xlink:href="#m70beac274e" x="493.668721" y="271.523209" style="fill: #008000; stroke: #008000; stroke-linejoin: miter"/>
     <use xlink:href="#m70beac274e" x="502.266564" y="268.912121" style="fill: #008000; stroke: #008000; stroke-linejoin: miter"/>
     <use xlink:href="#m70beac274e" x="510.864407" y="256.781128" style="fill: #008000; stroke: #008000; stroke-linejoin: miter"/>
     <use xlink:href="#m70beac274e" x="519.46225" y="289.810537" style="fill: #008000; stroke: #008000; stroke-linejoin: miter"/>
     <use xlink:href="#m70beac274e" x="528.060092" y="289.929594" style="fill: #008000; stroke: #008000; stroke-linejoin: miter"/>
     <use xlink:href="#m70beac274e" x="536.657935" y="275.47616" style="fill: #008000; stroke: #008000; stroke-linejoin: miter"/>
     <use xlink:href="#m70beac274e" x="545.255778" y="279.143991" style="fill: #008000; stroke: #008000; stroke-linejoin: miter"/>
     <use xlink:href="#m70beac274e" x="553.853621" y="281.29439" style="fill: #008000; stroke: #008000; stroke-linejoin: miter"/>
     <use xlink:href="#m70beac274e" x="562.451464" y="292.370107" style="fill: #008000; stroke: #008000; stroke-linejoin: miter"/>
     <use xlink:href="#m70beac274e" x="571.049307" y="277.129188" style="fill: #008000; stroke: #008000; stroke-linejoin: miter"/>
     <use xlink:href="#m70beac274e" x="579.647149" y="275.260201" style="fill: #008000; stroke: #008000; stroke-linejoin: miter"/>
     <use xlink:href="#m70beac274e" x="588.244992" y="289.959287" style="fill: #008000; stroke: #008000; stroke-linejoin: miter"/>
     <use xlink:href="#m70beac274e" x="596.842835" y="287.113026" style="fill: #008000; stroke: #008000; stroke-linejoin: miter"/>
     <use xlink:href="#m70beac274e" x="605.440678" y="291.87309" style="fill: #008000; stroke: #008000; stroke-linejoin: miter"/>
     <use xlink:href="#m70beac274e" x="614.038521" y="246.502842" style="fill: #008000; stroke: #008000; stroke-linejoin: miter"/>
     <use xlink:href="#m70beac274e" x="622.636364" y="292.051647" style="fill: #008000; stroke: #008000; stroke-linejoin: miter"/>
    </g>
   </g>
   <g id="patch_3">
    <path d="M 90 384.48 
L 90 51.84 
" style="fill: none; stroke: #000000; stroke-width: 0.8; stroke-linejoin: miter; stroke-linecap: square"/>
   </g>
   <g id="patch_4">
    <path d="M 648 384.48 
L 648 51.84 
" style="fill: none; stroke: #000000; stroke-width: 0.8; stroke-linejoin: miter; stroke-linecap: square"/>
   </g>
   <g id="patch_5">
    <path d="M 90 384.48 
L 648 384.48 
" style="fill: none; stroke: #000000; stroke-width: 0.8; stroke-linejoin: miter; stroke-linecap: square"/>
   </g>
   <g id="patch_6">
    <path d="M 90 51.84 
L 648 51.84 
" style="fill: none; stroke: #000000; stroke-width: 0.8; stroke-linejoin: miter; stroke-linecap: square"/>
   </g>
  </g>
  <g id="axes_2">
   <g id="matplotlib.axis_3">
    <g id="ytick_7">
     <g id="line2d_16">
      <defs>
       <path id="m350b157129" d="M 0 0 
L 3.5 0 
" style="stroke: #000000; stroke-width: 0.8"/>
      </defs>
      <g>
       <use xlink:href="#m350b157129" x="648" y="375.07645" style="stroke: #000000; stroke-width: 0.8"/>
      </g>
     </g>
     <g id="text_16">
      <!-- 0.35 -->
      <g transform="translate(655 378.875669)scale(0.1 -0.1)">
       <use xlink:href="#DejaVuSans-30"/>
       <use xlink:href="#DejaVuSans-2e" x="63.623047"/>
       <use xlink:href="#DejaVuSans-33" x="95.410156"/>
       <use xlink:href="#DejaVuSans-35" x="159.033203"/>
      </g>
     </g>
    </g>
    <g id="ytick_8">
     <g id="line2d_17">
      <g>
       <use xlink:href="#m350b157129" x="648" y="303.620865" style="stroke: #000000; stroke-width: 0.8"/>
      </g>
     </g>
     <g id="text_17">
      <!-- 0.40 -->
      <g transform="translate(655 307.420084)scale(0.1 -0.1)">
       <use xlink:href="#DejaVuSans-30"/>
       <use xlink:href="#DejaVuSans-2e" x="63.623047"/>
       <use xlink:href="#DejaVuSans-34" x="95.410156"/>
       <use xlink:href="#DejaVuSans-30" x="159.033203"/>
      </g>
     </g>
    </g>
    <g id="ytick_9">
     <g id="line2d_18">
      <g>
       <use xlink:href="#m350b157129" x="648" y="232.16528" style="stroke: #000000; stroke-width: 0.8"/>
      </g>
     </g>
     <g id="text_18">
      <!-- 0.45 -->
      <g transform="translate(655 235.964499)scale(0.1 -0.1)">
       <use xlink:href="#DejaVuSans-30"/>
       <use xlink:href="#DejaVuSans-2e" x="63.623047"/>
       <use xlink:href="#DejaVuSans-34" x="95.410156"/>
       <use xlink:href="#DejaVuSans-35" x="159.033203"/>
      </g>
     </g>
    </g>
    <g id="ytick_10">
     <g id="line2d_19">
      <g>
       <use xlink:href="#m350b157129" x="648" y="160.709696" style="stroke: #000000; stroke-width: 0.8"/>
      </g>
     </g>
     <g id="text_19">
      <!-- 0.50 -->
      <g transform="translate(655 164.508914)scale(0.1 -0.1)">
       <use xlink:href="#DejaVuSans-30"/>
       <use xlink:href="#DejaVuSans-2e" x="63.623047"/>
       <use xlink:href="#DejaVuSans-35" x="95.410156"/>
       <use xlink:href="#DejaVuSans-30" x="159.033203"/>
      </g>
     </g>
    </g>
    <g id="ytick_11">
     <g id="line2d_20">
      <g>
       <use xlink:href="#m350b157129" x="648" y="89.254111" style="stroke: #000000; stroke-width: 0.8"/>
      </g>
     </g>
     <g id="text_20">
      <!-- 0.55 -->
      <g transform="translate(655 93.05333)scale(0.1 -0.1)">
       <use xlink:href="#DejaVuSans-30"/>
       <use xlink:href="#DejaVuSans-2e" x="63.623047"/>
       <use xlink:href="#DejaVuSans-35" x="95.410156"/>
       <use xlink:href="#DejaVuSans-35" x="159.033203"/>
      </g>
     </g>
    </g>
    <g id="text_21">
     <!-- Accuracy -->
     <g transform="translate(688.864063 240.988125)rotate(-90)scale(0.1 -0.1)">
      <defs>
       <path id="DejaVuSans-41" d="M 2188 4044 
L 1331 1722 
L 3047 1722 
L 2188 4044 
z
M 1831 4666 
L 2547 4666 
L 4325 0 
L 3669 0 
L 3244 1197 
L 1141 1197 
L 716 0 
L 50 0 
L 1831 4666 
z
" transform="scale(0.015625)"/>
       <path id="DejaVuSans-75" d="M 544 1381 
L 544 3500 
L 1119 3500 
L 1119 1403 
Q 1119 906 1312 657 
Q 1506 409 1894 409 
Q 2359 409 2629 706 
Q 2900 1003 2900 1516 
L 2900 3500 
L 3475 3500 
L 3475 0 
L 2900 0 
L 2900 538 
Q 2691 219 2414 64 
Q 2138 -91 1772 -91 
Q 1169 -91 856 284 
Q 544 659 544 1381 
z
M 1991 3584 
L 1991 3584 
z
" transform="scale(0.015625)"/>
       <path id="DejaVuSans-72" d="M 2631 2963 
Q 2534 3019 2420 3045 
Q 2306 3072 2169 3072 
Q 1681 3072 1420 2755 
Q 1159 2438 1159 1844 
L 1159 0 
L 581 0 
L 581 3500 
L 1159 3500 
L 1159 2956 
Q 1341 3275 1631 3429 
Q 1922 3584 2338 3584 
Q 2397 3584 2469 3576 
Q 2541 3569 2628 3553 
L 2631 2963 
z
" transform="scale(0.015625)"/>
       <path id="DejaVuSans-61" d="M 2194 1759 
Q 1497 1759 1228 1600 
Q 959 1441 959 1056 
Q 959 750 1161 570 
Q 1363 391 1709 391 
Q 2188 391 2477 730 
Q 2766 1069 2766 1631 
L 2766 1759 
L 2194 1759 
z
M 3341 1997 
L 3341 0 
L 2766 0 
L 2766 531 
Q 2569 213 2275 61 
Q 1981 -91 1556 -91 
Q 1019 -91 701 211 
Q 384 513 384 1019 
Q 384 1609 779 1909 
Q 1175 2209 1959 2209 
L 2766 2209 
L 2766 2266 
Q 2766 2663 2505 2880 
Q 2244 3097 1772 3097 
Q 1472 3097 1187 3025 
Q 903 2953 641 2809 
L 641 3341 
Q 956 3463 1253 3523 
Q 1550 3584 1831 3584 
Q 2591 3584 2966 3190 
Q 3341 2797 3341 1997 
z
" transform="scale(0.015625)"/>
       <path id="DejaVuSans-79" d="M 2059 -325 
Q 1816 -950 1584 -1140 
Q 1353 -1331 966 -1331 
L 506 -1331 
L 506 -850 
L 844 -850 
Q 1081 -850 1212 -737 
Q 1344 -625 1503 -206 
L 1606 56 
L 191 3500 
L 800 3500 
L 1894 763 
L 2988 3500 
L 3597 3500 
L 2059 -325 
z
" transform="scale(0.015625)"/>
      </defs>
      <use xlink:href="#DejaVuSans-41"/>
      <use xlink:href="#DejaVuSans-63" x="66.658203"/>
      <use xlink:href="#DejaVuSans-63" x="121.638672"/>
      <use xlink:href="#DejaVuSans-75" x="176.619141"/>
      <use xlink:href="#DejaVuSans-72" x="239.998047"/>
      <use xlink:href="#DejaVuSans-61" x="281.111328"/>
      <use xlink:href="#DejaVuSans-63" x="342.390625"/>
      <use xlink:href="#DejaVuSans-79" x="397.371094"/>
     </g>
    </g>
   </g>
   <g id="line2d_21">
    <path d="M 115.363636 369.36 
L 123.961479 219.732007 
L 132.559322 206.15545 
L 141.157165 168.283967 
L 149.755008 157.994359 
L 158.352851 136.700639 
L 166.950693 137.701013 
L 175.548536 122.409535 
L 184.146379 99.400767 
L 192.744222 103.831067 
L 201.342065 116.550142 
L 209.939908 110.547899 
L 218.53775 114.40646 
L 227.135593 102.687758 
L 235.733436 86.538757 
L 244.331279 106.260534 
L 252.929122 92.39815 
L 261.526965 89.397029 
L 270.124807 125.553507 
L 278.72265 90.683187 
L 287.320493 89.825748 
L 295.918336 86.681692 
L 304.516179 96.113861 
L 313.114022 92.82687 
L 321.711864 88.968309 
L 330.309707 83.251851 
L 338.90755 94.684768 
L 347.505393 92.255215 
L 356.103236 88.110785 
L 364.701079 81.251103 
L 373.298921 70.389841 
L 381.896764 71.10443 
L 390.494607 81.965607 
L 399.09245 78.964486 
L 407.690293 76.249234 
L 416.288136 87.967936 
L 424.885978 66.96 
L 433.483821 74.677206 
L 442.081664 93.541459 
L 450.679507 78.249982 
L 459.27735 87.396281 
L 467.875193 86.967562 
L 476.473035 89.111159 
L 485.070878 74.962991 
L 493.668721 105.831815 
L 502.266564 100.829946 
L 510.864407 115.978488 
L 519.46225 87.825001 
L 528.060092 84.680944 
L 536.657935 105.831815 
L 545.255778 98.686263 
L 553.853621 92.68402 
L 562.451464 90.540338 
L 571.049307 108.975871 
L 579.647149 100.972795 
L 588.244992 89.111159 
L 596.842835 87.110411 
L 605.440678 90.111618 
L 614.038521 120.694572 
L 622.636364 78.964486 
" clip-path="url(#p1c010a1fe8)" style="fill: none; stroke: #1e90ff; stroke-width: 1.5; stroke-linecap: square"/>
    <defs>
     <path id="mb6aefb27c2" d="M -3 3 
L 3 3 
L 3 -3 
L -3 -3 
z
" style="stroke: #1e90ff; stroke-linejoin: miter"/>
    </defs>
    <g clip-path="url(#p1c010a1fe8)">
     <use xlink:href="#mb6aefb27c2" x="115.363636" y="369.36" style="fill: #1e90ff; stroke: #1e90ff; stroke-linejoin: miter"/>
     <use xlink:href="#mb6aefb27c2" x="123.961479" y="219.732007" style="fill: #1e90ff; stroke: #1e90ff; stroke-linejoin: miter"/>
     <use xlink:href="#mb6aefb27c2" x="132.559322" y="206.15545" style="fill: #1e90ff; stroke: #1e90ff; stroke-linejoin: miter"/>
     <use xlink:href="#mb6aefb27c2" x="141.157165" y="168.283967" style="fill: #1e90ff; stroke: #1e90ff; stroke-linejoin: miter"/>
     <use xlink:href="#mb6aefb27c2" x="149.755008" y="157.994359" style="fill: #1e90ff; stroke: #1e90ff; stroke-linejoin: miter"/>
     <use xlink:href="#mb6aefb27c2" x="158.352851" y="136.700639" style="fill: #1e90ff; stroke: #1e90ff; stroke-linejoin: miter"/>
     <use xlink:href="#mb6aefb27c2" x="166.950693" y="137.701013" style="fill: #1e90ff; stroke: #1e90ff; stroke-linejoin: miter"/>
     <use xlink:href="#mb6aefb27c2" x="175.548536" y="122.409535" style="fill: #1e90ff; stroke: #1e90ff; stroke-linejoin: miter"/>
     <use xlink:href="#mb6aefb27c2" x="184.146379" y="99.400767" style="fill: #1e90ff; stroke: #1e90ff; stroke-linejoin: miter"/>
     <use xlink:href="#mb6aefb27c2" x="192.744222" y="103.831067" style="fill: #1e90ff; stroke: #1e90ff; stroke-linejoin: miter"/>
     <use xlink:href="#mb6aefb27c2" x="201.342065" y="116.550142" style="fill: #1e90ff; stroke: #1e90ff; stroke-linejoin: miter"/>
     <use xlink:href="#mb6aefb27c2" x="209.939908" y="110.547899" style="fill: #1e90ff; stroke: #1e90ff; stroke-linejoin: miter"/>
     <use xlink:href="#mb6aefb27c2" x="218.53775" y="114.40646" style="fill: #1e90ff; stroke: #1e90ff; stroke-linejoin: miter"/>
     <use xlink:href="#mb6aefb27c2" x="227.135593" y="102.687758" style="fill: #1e90ff; stroke: #1e90ff; stroke-linejoin: miter"/>
     <use xlink:href="#mb6aefb27c2" x="235.733436" y="86.538757" style="fill: #1e90ff; stroke: #1e90ff; stroke-linejoin: miter"/>
     <use xlink:href="#mb6aefb27c2" x="244.331279" y="106.260534" style="fill: #1e90ff; stroke: #1e90ff; stroke-linejoin: miter"/>
     <use xlink:href="#mb6aefb27c2" x="252.929122" y="92.39815" style="fill: #1e90ff; stroke: #1e90ff; stroke-linejoin: miter"/>
     <use xlink:href="#mb6aefb27c2" x="261.526965" y="89.397029" style="fill: #1e90ff; stroke: #1e90ff; stroke-linejoin: miter"/>
     <use xlink:href="#mb6aefb27c2" x="270.124807" y="125.553507" style="fill: #1e90ff; stroke: #1e90ff; stroke-linejoin: miter"/>
     <use xlink:href="#mb6aefb27c2" x="278.72265" y="90.683187" style="fill: #1e90ff; stroke: #1e90ff; stroke-linejoin: miter"/>
     <use xlink:href="#mb6aefb27c2" x="287.320493" y="89.825748" style="fill: #1e90ff; stroke: #1e90ff; stroke-linejoin: miter"/>
     <use xlink:href="#mb6aefb27c2" x="295.918336" y="86.681692" style="fill: #1e90ff; stroke: #1e90ff; stroke-linejoin: miter"/>
     <use xlink:href="#mb6aefb27c2" x="304.516179" y="96.113861" style="fill: #1e90ff; stroke: #1e90ff; stroke-linejoin: miter"/>
     <use xlink:href="#mb6aefb27c2" x="313.114022" y="92.82687" style="fill: #1e90ff; stroke: #1e90ff; stroke-linejoin: miter"/>
     <use xlink:href="#mb6aefb27c2" x="321.711864" y="88.968309" style="fill: #1e90ff; stroke: #1e90ff; stroke-linejoin: miter"/>
     <use xlink:href="#mb6aefb27c2" x="330.309707" y="83.251851" style="fill: #1e90ff; stroke: #1e90ff; stroke-linejoin: miter"/>
     <use xlink:href="#mb6aefb27c2" x="338.90755" y="94.684768" style="fill: #1e90ff; stroke: #1e90ff; stroke-linejoin: miter"/>
     <use xlink:href="#mb6aefb27c2" x="347.505393" y="92.255215" style="fill: #1e90ff; stroke: #1e90ff; stroke-linejoin: miter"/>
     <use xlink:href="#mb6aefb27c2" x="356.103236" y="88.110785" style="fill: #1e90ff; stroke: #1e90ff; stroke-linejoin: miter"/>
     <use xlink:href="#mb6aefb27c2" x="364.701079" y="81.251103" style="fill: #1e90ff; stroke: #1e90ff; stroke-linejoin: miter"/>
     <use xlink:href="#mb6aefb27c2" x="373.298921" y="70.389841" style="fill: #1e90ff; stroke: #1e90ff; stroke-linejoin: miter"/>
     <use xlink:href="#mb6aefb27c2" x="381.896764" y="71.10443" style="fill: #1e90ff; stroke: #1e90ff; stroke-linejoin: miter"/>
     <use xlink:href="#mb6aefb27c2" x="390.494607" y="81.965607" style="fill: #1e90ff; stroke: #1e90ff; stroke-linejoin: miter"/>
     <use xlink:href="#mb6aefb27c2" x="399.09245" y="78.964486" style="fill: #1e90ff; stroke: #1e90ff; stroke-linejoin: miter"/>
     <use xlink:href="#mb6aefb27c2" x="407.690293" y="76.249234" style="fill: #1e90ff; stroke: #1e90ff; stroke-linejoin: miter"/>
     <use xlink:href="#mb6aefb27c2" x="416.288136" y="87.967936" style="fill: #1e90ff; stroke: #1e90ff; stroke-linejoin: miter"/>
     <use xlink:href="#mb6aefb27c2" x="424.885978" y="66.96" style="fill: #1e90ff; stroke: #1e90ff; stroke-linejoin: miter"/>
     <use xlink:href="#mb6aefb27c2" x="433.483821" y="74.677206" style="fill: #1e90ff; stroke: #1e90ff; stroke-linejoin: miter"/>
     <use xlink:href="#mb6aefb27c2" x="442.081664" y="93.541459" style="fill: #1e90ff; stroke: #1e90ff; stroke-linejoin: miter"/>
     <use xlink:href="#mb6aefb27c2" x="450.679507" y="78.249982" style="fill: #1e90ff; stroke: #1e90ff; stroke-linejoin: miter"/>
     <use xlink:href="#mb6aefb27c2" x="459.27735" y="87.396281" style="fill: #1e90ff; stroke: #1e90ff; stroke-linejoin: miter"/>
     <use xlink:href="#mb6aefb27c2" x="467.875193" y="86.967562" style="fill: #1e90ff; stroke: #1e90ff; stroke-linejoin: miter"/>
     <use xlink:href="#mb6aefb27c2" x="476.473035" y="89.111159" style="fill: #1e90ff; stroke: #1e90ff; stroke-linejoin: miter"/>
     <use xlink:href="#mb6aefb27c2" x="485.070878" y="74.962991" style="fill: #1e90ff; stroke: #1e90ff; stroke-linejoin: miter"/>
     <use xlink:href="#mb6aefb27c2" x="493.668721" y="105.831815" style="fill: #1e90ff; stroke: #1e90ff; stroke-linejoin: miter"/>
     <use xlink:href="#mb6aefb27c2" x="502.266564" y="100.829946" style="fill: #1e90ff; stroke: #1e90ff; stroke-linejoin: miter"/>
     <use xlink:href="#mb6aefb27c2" x="510.864407" y="115.978488" style="fill: #1e90ff; stroke: #1e90ff; stroke-linejoin: miter"/>
     <use xlink:href="#mb6aefb27c2" x="519.46225" y="87.825001" style="fill: #1e90ff; stroke: #1e90ff; stroke-linejoin: miter"/>
     <use xlink:href="#mb6aefb27c2" x="528.060092" y="84.680944" style="fill: #1e90ff; stroke: #1e90ff; stroke-linejoin: miter"/>
     <use xlink:href="#mb6aefb27c2" x="536.657935" y="105.831815" style="fill: #1e90ff; stroke: #1e90ff; stroke-linejoin: miter"/>
     <use xlink:href="#mb6aefb27c2" x="545.255778" y="98.686263" style="fill: #1e90ff; stroke: #1e90ff; stroke-linejoin: miter"/>
     <use xlink:href="#mb6aefb27c2" x="553.853621" y="92.68402" style="fill: #1e90ff; stroke: #1e90ff; stroke-linejoin: miter"/>
     <use xlink:href="#mb6aefb27c2" x="562.451464" y="90.540338" style="fill: #1e90ff; stroke: #1e90ff; stroke-linejoin: miter"/>
     <use xlink:href="#mb6aefb27c2" x="571.049307" y="108.975871" style="fill: #1e90ff; stroke: #1e90ff; stroke-linejoin: miter"/>
     <use xlink:href="#mb6aefb27c2" x="579.647149" y="100.972795" style="fill: #1e90ff; stroke: #1e90ff; stroke-linejoin: miter"/>
     <use xlink:href="#mb6aefb27c2" x="588.244992" y="89.111159" style="fill: #1e90ff; stroke: #1e90ff; stroke-linejoin: miter"/>
     <use xlink:href="#mb6aefb27c2" x="596.842835" y="87.110411" style="fill: #1e90ff; stroke: #1e90ff; stroke-linejoin: miter"/>
     <use xlink:href="#mb6aefb27c2" x="605.440678" y="90.111618" style="fill: #1e90ff; stroke: #1e90ff; stroke-linejoin: miter"/>
     <use xlink:href="#mb6aefb27c2" x="614.038521" y="120.694572" style="fill: #1e90ff; stroke: #1e90ff; stroke-linejoin: miter"/>
     <use xlink:href="#mb6aefb27c2" x="622.636364" y="78.964486" style="fill: #1e90ff; stroke: #1e90ff; stroke-linejoin: miter"/>
    </g>
   </g>
   <g id="patch_7">
    <path d="M 90 384.48 
L 90 51.84 
" style="fill: none; stroke: #000000; stroke-width: 0.8; stroke-linejoin: miter; stroke-linecap: square"/>
   </g>
   <g id="patch_8">
    <path d="M 648 384.48 
L 648 51.84 
" style="fill: none; stroke: #000000; stroke-width: 0.8; stroke-linejoin: miter; stroke-linecap: square"/>
   </g>
   <g id="patch_9">
    <path d="M 90 384.48 
L 648 384.48 
" style="fill: none; stroke: #000000; stroke-width: 0.8; stroke-linejoin: miter; stroke-linecap: square"/>
   </g>
   <g id="patch_10">
    <path d="M 90 51.84 
L 648 51.84 
" style="fill: none; stroke: #000000; stroke-width: 0.8; stroke-linejoin: miter; stroke-linecap: square"/>
   </g>
  </g>
 </g>
 <defs>
  <clipPath id="p1c010a1fe8">
   <rect x="90" y="51.84" width="558" height="332.64"/>
  </clipPath>
 </defs>
</svg>
